PathFileType	4	(X/Y/Z)	./resultDataOpenSim/trcMotMarkerGrf/sub09/qtm-15-08.trc
DataRate	CameraRate	NumFrames	NumMarkers	Units	OrigDataRate	OrigDataStartFrame	OrigNumFrames
250.000000	250.000000	6	24	m	250.000000	408	466
Frame#	Time	L.Toe.Tip			R.Toe.Tip			L.Ankle.Lat			R.Ankle.Lat			L.Ankle.Med			R.Ankle.Med			L.Heel			R.Heel			L.Knee.Lat			R.Knee.Lat			L.Knee.Med			R.Knee.Med			L.Thigh.Upper			R.Thigh.Upper			L.ASIS			R.ASIS			V.Sacral			L.Acromium			R.Acromium			C7			L.Elbow			R.Elbow			L.Wrist.Lat			R.Wrist.Lat
		X1	Y1	Z1	X2	Y2	Z2	X3	Y3	Z3	X4	Y4	Z4	X5	Y5	Z5	X6	Y6	Z6	X7	Y7	Z7	X8	Y8	Z8	X9	Y9	Z9	X10	Y10	Z10	X11	Y11	Z11	X12	Y12	Z12	X13	Y13	Z13	X14	Y14	Z14	X15	Y15	Z15	X16	Y16	Z16	X17	Y17	Z17	X18	Y18	Z18	X19	Y19	Z19	X20	Y20	Z20	X21	Y21	Z21	X22	Y22	Z22	X23	Y23	Z23	X24	Y24	Z24

408	1.628	1.7657983	0.1490451	-0.11393783	1.0615252	0.04229996	-0.0022224363	1.6166757	0.10633724	-0.13920183	0.94771714	0.11550311	0.050553609	1.6388034	0.13545194	-0.047153558	0.96484743	0.15131653	-0.039694228	1.578301	0.039773528	-0.084922523	0.86843076	0.12591429	-0.0052392204	1.4617727	0.49451208	-0.17263225	1.1745927	0.5120363	0.12010798	1.4637326	0.48626283	-0.044982055	1.1670943	0.50341482	-0.0046550713	1.3117049	0.88573386	-0.2031507	1.241123	0.91050226	0.16943034	1.3817241	0.97708747	-0.13779266	1.3701845	0.98466125	0.10227563	1.2088407	1.0337918	-0.035495585	1.3578531	1.4323402	-0.20009655	1.3414468	1.4482464	0.13062474	1.2778996	1.4879631	-0.036024947	1.2025907	1.1016053	-0.25411638	1.216149	1.0948799	0.23511823	1.2878564	0.86298906	-0.32289605	1.4641177	0.96374857	0.19797036
409	1.632	1.7742467	0.14878977	-0.11303371	1.0616744	0.042289741	-0.001980165	1.6251311	0.10579353	-0.13820366	0.94640617	0.11609808	0.050563369	1.6471813	0.13530074	-0.046359362	0.96602746	0.15213532	-0.039121201	1.5867614	0.039230256	-0.08373454	0.86949505	0.12753763	-0.0045566365	1.4696046	0.49393391	-0.1725183	1.178595	0.51143742	0.12021543	1.470961	0.48561169	-0.044744312	1.170934	0.50284109	-0.0051099093	1.3183927	0.88388373	-0.2035083	1.2386996	0.91065554	0.17114138	1.3880037	0.97551706	-0.13833337	1.3764657	0.98324417	0.10178374	1.2151155	1.0323788	-0.036268472	1.3636704	1.431096	-0.20043983	1.3469035	1.4468919	0.13030614	1.2834746	1.4865386	-0.036397081	1.2079341	1.1005596	-0.25504627	1.2219172	1.0933173	0.23425403	1.2929762	0.86187997	-0.32360555	1.4699224	0.96261008	0.19780583
410	1.636	1.781942	0.14780164	-0.11218947	1.0618246	0.042252097	-0.0016448802	1.6327349	0.10487071	-0.1372133	0.94325795	0.11644249	0.050007105	1.6548419	0.13468284	-0.045524634	0.96727453	0.15300669	-0.038518861	1.5941844	0.038402848	-0.08245692	0.87062946	0.12921351	-0.0038726839	1.4777673	0.49339487	-0.17235287	1.1828155	0.51074609	0.12039872	1.4787047	0.48512147	-0.044495732	1.1750043	0.50217349	-0.0055410676	1.3250269	0.88198703	-0.20395734	1.2364308	0.91076129	0.17292042	1.3942865	0.97386731	-0.13887529	1.3827117	0.98179475	0.10129348	1.221393	1.0309145	-0.037002823	1.3695039	1.4298046	-0.20078073	1.3524037	1.4454789	0.12998067	1.2890519	1.4850653	-0.036791221	1.2132921	1.0994389	-0.25599659	1.2275875	1.0917295	0.23334823	1.2981762	0.86071975	-0.32430474	1.4755654	0.96136826	0.19770677
411	1.64	1.7888929	0.14624542	-0.11139582	1.0619923	0.042225332	-0.0012956472	1.6395731	0.10359561	-0.13627401	0.94032304	0.11687984	0.049455676	1.6617898	0.13359684	-0.044663242	0.96859058	0.15391851	-0.037888948	1.600648	0.037340033	-0.081239266	0.87183153	0.13094404	-0.0031795639	1.4861329	0.4928802	-0.17209941	1.1872577	0.50996145	0.12065108	1.4869012	0.48476961	-0.044242864	1.179304	0.50137525	-0.0057736567	1.331583	0.8800833	-0.20451333	1.2368403	0.91040235	0.17401872	1.4005869	0.97215132	-0.13942598	1.3889336	0.98031359	0.10080069	1.2276417	1.0293943	-0.03774201	1.3753547	1.428466	-0.20112634	1.3579526	1.4440028	0.12965164	1.2946349	1.4835336	-0.037190513	1.2186846	1.0982514	-0.25693197	1.233238	1.0901055	0.23244089	1.3034513	0.85951244	-0.32498767	1.4811945	0.96001094	0.19763289
412	1.644	1.795151	0.14418513	-0.11062128	1.062193	0.042239173	-0.00099579726	1.6457273	0.10200245	-0.13540798	0.93909008	0.11765329	0.049351001	1.6680306	0.1320674	-0.043784778	0.96998457	0.15484557	-0.037237103	1.6062295	0.036071685	-0.080183275	0.87310062	0.13273129	-0.0024686627	1.4946478	0.49240271	-0.17175297	1.1919107	0.5090958	0.12094763	1.4954782	0.48452672	-0.043996984	1.1838342	0.50042588	-0.0057382405	1.3380495	0.87822311	-0.20516041	1.2405911	0.90946351	0.17417216	1.406922	0.97039357	-0.13998751	1.3951485	0.97879103	0.10029857	1.2338674	1.0278286	-0.038506491	1.3812234	1.427082	-0.20148932	1.3635568	1.4424629	0.12931804	1.3002352	1.4819397	-0.037582251	1.2241648	1.0970146	-0.25777355	1.238909	1.0884493	0.23158377	1.3088054	0.85825337	-0.32565037	1.4869111	0.95852695	0.1975569
413	1.648	1.8008096	0.14157341	-0.10978398	1.0624281	0.042294399	-0.00075901732	1.6512737	0.10012992	-0.13461558	0.93949468	0.11873876	0.049713539	1.6735897	0.13014037	-0.042901055	0.97146906	0.15576743	-0.036560932	1.6110376	0.03460061	-0.079339056	0.87444075	0.13457819	-0.0017304058	1.5032961	0.49196555	-0.17134017	1.1967867	0.50815499	0.12126563	1.5043484	0.48435296	-0.0437697	1.1886041	0.49932513	-0.0054984338	1.344431	0.87644344	-0.20588203	1.2465445	0.90812314	0.17365808	1.4133195	0.96862735	-0.1405673	1.401373	0.97721846	0.09978145	1.2401163	1.0262314	-0.039271258	1.3871077	1.425653	-0.20187993	1.3692168	1.4408617	0.12897572	1.3058635	1.4803013	-0.037965845	1.2297511	1.0957323	-0.2585101	1.2446357	1.086781	0.23080207	1.3142461	0.85693964	-0.32629554	1.4926982	0.95691913	0.19748315
